# xmcd
#
# Track frame offsets: 
#        150
#        2034
#        7357
#        16795
#        27721
#        36191
#        54750
#        68780
#        77507
#        82159
#        87144
#        101189
#        113091
#        117606
#        128293
#        140577
#        151019
#
# Disc length: 2046 seconds
#
# Revision: 0
# Processed by: cddbd v1.5.1PL0 Copyright (c) Steve Scherf et al.
# Submitted via: ExactAudioCopy v0.90b4
#
DISCID=d207fc11
DTITLE=Bill Monroe and The Bluegrass Boys - 7-4-61 Oak Leaf Park, Luray,
DTITLE=Va
DYEAR=1961
DGENRE=Bluegrass
TTITLE0=Watermelon On The Vine
TTITLE1=Intros
TTITLE2=Panhandle Country
TTITLE3=I Gotta Travel On
TTITLE4=Blue Moon Of Kentucky
TTITLE5=Put My Rubber Doll Away
TTITLE6=Rawhide
TTITLE7=Linda Lou
TTITLE8=Carter Stanley Intro
TTITLE9=Carter's Rap
TTITLE10=Sugar Coated Love
TTITLE11=What Would You Give
TTITLE12=Mac Wiseman Intro
TTITLE13=Can't You Hear Me Callin'
TTITLE14=Travel That Lonesome Road
TTITLE15=Whitehouse Blues
TTITLE16=Y'all Come
EXTD=
EXTT0=
EXTT1=
EXTT2=
EXTT3=
EXTT4=
EXTT5=
EXTT6=
EXTT7=
EXTT8=
EXTT9=
EXTT10=
EXTT11=
EXTT12=
EXTT13=
EXTT14=
EXTT15=
EXTT16=
PLAYORDER=
